<?xml version="1.0" encoding="iso-8859-1"?>
<!-- Uploaded to: SVG Repo, www.svgrepo.com, Generator: SVG Repo Mixer Tools -->
<svg height="800px" width="800px" version="1.1" id="Layer_1" xmlns="http://www.w3.org/2000/svg" xmlns:xlink="http://www.w3.org/1999/xlink" 
	 viewBox="0 0 512 512" xml:space="preserve">
<circle style="fill:#FDD042;" cx="256" cy="44.434" r="34.133"/>
<path style="fill:#F2C127;" d="M264.533,70.034c-18.851,0-34.133-15.282-34.133-34.133c0-7.246,2.265-13.959,6.114-19.486
	c-8.85,6.167-14.647,16.413-14.647,28.019c0,18.851,15.282,34.133,34.133,34.133c11.605,0,21.852-5.797,28.019-14.647
	C278.493,67.77,271.779,70.034,264.533,70.034z"/>
<circle style="fill:#FDE5A2;" cx="273.067" cy="35.901" r="8.533"/>
<path style="fill:#E5563C;" d="M424.951,157.083C379.823,111.954,319.822,87.101,256,87.101s-123.823,24.853-168.951,69.982
	S17.067,262.213,17.067,326.034c0,4.713,3.821,8.533,8.533,8.533h460.8c4.713,0,8.533-3.821,8.533-8.533
	C494.933,262.213,470.08,202.211,424.951,157.083z"/>
<path style="fill:#CF442B;" d="M51.2,326.034c0-63.821,24.853-123.823,69.982-168.951C162.263,116,215.673,91.728,273.067,87.705
	c-5.653-0.397-11.344-0.604-17.067-0.604c-63.822,0-123.823,24.853-168.951,69.982S17.067,262.213,17.067,326.034
	c0,4.713,3.821,8.533,8.533,8.533h34.133C55.021,334.568,51.2,330.747,51.2,326.034z"/>
<circle style="fill:#F58F6C;" cx="423.467" cy="263.104" r="28.8"/>
<path style="fill:#88898E;" d="M503.467,326.034H8.533c-4.713,0-8.533,3.821-8.533,8.533v17.067c0,4.713,3.821,8.533,8.533,8.533
	h494.933c4.713,0,8.533-3.821,8.533-8.533v-17.067C512,329.855,508.179,326.034,503.467,326.034z"/>
<path style="fill:#74757B;" d="M503.467,343.101H8.533c-4.713,0-8.533-3.821-8.533-8.533v17.067c0,4.713,3.821,8.533,8.533,8.533
	h494.933c4.713,0,8.533-3.821,8.533-8.533v-17.067C512,339.28,508.179,343.101,503.467,343.101z"/>
<g>
	<path style="fill:#FFFFFF;" d="M238.933,249.234H204.8c-4.713,0-8.533-3.821-8.533-8.533v-34.133c0-4.713,3.821-8.533,8.533-8.533
		h25.6v-17.067h-25.6c-4.713,0-8.533-3.821-8.533-8.533c0-4.713,3.821-8.533,8.533-8.533h34.133c4.713,0,8.533,3.821,8.533,8.533
		v34.133c0,4.713-3.821,8.533-8.533,8.533h-25.6v17.067h25.6c4.713,0,8.533,3.821,8.533,8.533
		C247.467,245.413,243.646,249.234,238.933,249.234z"/>
	<path style="fill:#FFFFFF;" d="M307.2,223.634h-42.667c-4.713,0-8.533-3.821-8.533-8.533v-42.667c0-4.713,3.821-8.533,8.533-8.533
		c4.713,0,8.533,3.821,8.533,8.533v34.133H307.2c4.713,0,8.533,3.821,8.533,8.533C315.733,219.813,311.913,223.634,307.2,223.634z"
		/>
	<path style="fill:#FFFFFF;" d="M290.133,249.234c-4.713,0-8.533-3.821-8.533-8.533v-51.2c0-4.713,3.821-8.533,8.533-8.533
		c4.713,0,8.533,3.821,8.533,8.533v51.2C298.667,245.413,294.846,249.234,290.133,249.234z"/>
</g>
<path style="fill:#B83C26;" d="M332.288,138.301h9.045c4.713,0,8.533-3.821,8.533-8.533c0-4.713-3.821-8.533-8.533-8.533H307.2
	c-4.713,0-8.533,3.821-8.533,8.533v29.862c0,4.713,3.821,8.533,8.533,8.533s8.533-3.821,8.533-8.533v-21.329h0.925
	c-1.573,3.119-1.131,7.014,1.405,9.701c15.006,15.894,23.27,36.693,23.27,58.565c0,47.053-38.281,85.333-85.333,85.333
	s-85.333-38.281-85.333-85.333s38.281-85.333,85.333-85.333c4.713,0,8.533-3.821,8.533-8.533s-3.821-8.533-8.533-8.533
	c-56.464,0-102.4,45.936-102.4,102.4s45.936,102.4,102.4,102.4s102.4-45.936,102.4-102.4
	C358.4,181.229,349.133,157.106,332.288,138.301z"/>
<g>
	<path style="fill:#FDE5A2;" d="M237.808,487.132h105.077c2.263,0,4.434-0.899,6.034-2.499l64.215-64.215
		c6.859-6.859,6.659-18.101-0.597-24.705c-6.797-6.186-17.381-5.587-23.879,0.911L346.42,438.86l-78.442-18.101l-24.135-24.135
		c-26.66-26.66-69.884-26.66-96.544,0l-48.272,48.272c-3.332,3.332-3.332,8.736,0,12.068l42.238,42.237
		c3.332,3.332,8.735,3.332,12.068,0l24.135-24.135L237.808,487.132z"/>
	<path style="fill:#FDE5A2;" d="M332.478,420.047l-64.271,0.483v34.134l64.528-0.485c9.425-0.071,17.009-7.77,16.938-17.195
		C349.601,427.56,341.903,419.977,332.478,420.047z"/>
</g>
<g>
	<path style="fill:#FDD042;" d="M268.206,440.62v14.045l64.528-0.485c8.178-0.062,14.961-5.869,16.569-13.559H268.206z"/>
	<path style="fill:#FDD042;" d="M413.118,396.299l-72.732,72.732H231.775l-61.596-16.799c-2.955-0.805-6.114,0.033-8.279,2.198
		l-32.702,32.702l12.067,12.068c3.332,3.332,8.736,3.332,12.068,0l24.135-24.135l60.34,12.068h105.077
		c2.263,0,4.434-0.899,6.034-2.499l64.215-64.215C419.798,413.754,419.779,402.963,413.118,396.299z"/>
</g>
</svg>